<svg xmlns="http://www.w3.org/2000/svg" width="440" height="320" viewBox="0 0 440 320"><g stroke-linejoin="round" stroke-linecap="round"><path d="M290.90615821687896,172.502668792019A72 72 0 1 1 286.7572375288087,133.0283252740543" fill="none" stroke="#203747" stroke-width="23"/><path d="M290.90615821687896,172.502668792019A72 72 0 1 1 286.7572375288087,133.0283252740543" fill="none" stroke="#4b6676" stroke-width="15" stroke-dasharray="33 4"/><g transform="translate(314 137) rotate(0)"><path d="M0 7 7 0H27L34 7V49L27 56H7L0 49Z" fill="#233b4b" stroke="#597180" stroke-width="2"/><path d="M7 9H27M7 47H27" stroke="#374f60" stroke-width="3"/><path d="M11 15V41M23 15V41" stroke="#182b39" stroke-width="4"/></g><g transform="translate(149.00000000000003 223.60254037844388) rotate(120)"><path d="M0 7 7 0H27L34 7V49L27 56H7L0 49Z" fill="#233b4b" stroke="#597180" stroke-width="2"/><path d="M7 9H27M7 47H27" stroke="#374f60" stroke-width="3"/><path d="M11 15V41M23 15V41" stroke="#182b39" stroke-width="4"/></g><g transform="translate(148.99999999999994 50.39745962155615) rotate(240)"><path d="M0 7 7 0H27L34 7V49L27 56H7L0 49Z" fill="#233b4b" stroke="#597180" stroke-width="2"/><path d="M7 9H27M7 47H27" stroke="#374f60" stroke-width="3"/><path d="M11 15V41M23 15V41" stroke="#182b39" stroke-width="4"/></g><g><circle cx="220" cy="160" r="27" fill="#263e4c" stroke="#5a7180" stroke-width="3"/><ellipse cx="217" cy="157" rx="18.9" ry="21.6" fill="#324c5a"/><path d="M203.8 160H236.2" stroke="#1d303c" stroke-width="5"/></g></g></svg>