<svg xmlns="http://www.w3.org/2000/svg" width="256" height="192" viewBox="0 0 256 192"><defs><linearGradient id="h" x2=".2" y2="1"><stop stop-color="#60778a"/><stop offset=".35" stop-color="#374e62"/><stop offset="1" stop-color="#152d41"/></linearGradient></defs><g transform="translate(4 7)" opacity=".3"><path d="M23 67q22 40 44 0q-22-17-44 0" fill="#435a6c" stroke="#7e94a3" stroke-width="2"/><path d="M45 80v-35m-3 37l-12 25m15-25l12 25" stroke="#8299a5" stroke-width="3"/><path d="M106 43q22 40 44 0q-22-17-44 0" fill="#435a6c" stroke="#7e94a3" stroke-width="2"/><path d="M128 56v-35m-3 37l-12 25m15-25l12 25" stroke="#8299a5" stroke-width="3"/><path d="M182 97q22 40 44 0q-22-17-44 0" fill="#435a6c" stroke="#7e94a3" stroke-width="2"/><path d="M204 110v-35m-3 37l-12 25m15-25l12 25" stroke="#8299a5" stroke-width="3"/><path d="M32 129l86-25l81 49" fill="none" stroke="#344a5d" stroke-width="6"/></g><path d="M23 67q22 40 44 0q-22-17-44 0" fill="#435a6c" stroke="#7e94a3" stroke-width="2"/><path d="M45 80v-35m-3 37l-12 25m15-25l12 25" stroke="#8299a5" stroke-width="3"/><path d="M106 43q22 40 44 0q-22-17-44 0" fill="#435a6c" stroke="#7e94a3" stroke-width="2"/><path d="M128 56v-35m-3 37l-12 25m15-25l12 25" stroke="#8299a5" stroke-width="3"/><path d="M182 97q22 40 44 0q-22-17-44 0" fill="#435a6c" stroke="#7e94a3" stroke-width="2"/><path d="M204 110v-35m-3 37l-12 25m15-25l12 25" stroke="#8299a5" stroke-width="3"/><path d="M32 129l86-25l81 49" fill="none" stroke="#344a5d" stroke-width="6"/></svg>