<svg xmlns="http://www.w3.org/2000/svg" width="320" height="320" viewBox="0 0 320 320"><defs><radialGradient id="core"><stop stop-color="#e9ffff"/><stop offset=".32" stop-color="#62d9e5"/><stop offset="1" stop-color="#17364d" stop-opacity="0"/></radialGradient></defs><circle cx="160" cy="166" r="123" fill="#071724" stroke="#172c40" stroke-width="16"/><circle cx="160" cy="160" r="116" fill="none" stroke="#5f788b" stroke-width="10"/><circle cx="160" cy="160" r="91" fill="url(#core)" stroke="#327187" stroke-width="7"/><g transform="rotate(0 160 160)"><path d="M139 27L181 27 193 45 184 70 136 70 127 45Z" fill="#344f63" stroke="#7591a1" stroke-width="3"/><path d="M145 36h30v9h-30z" fill="#bdd9df"/><path d="M144 56h32" stroke="#58bdc9" stroke-width="4"/><path d="M145 27v-9h30v9" fill="#213849" stroke="#7995a3"/></g><g transform="rotate(45 160 160)"><path d="M139 27L181 27 193 45 184 70 136 70 127 45Z" fill="#344f63" stroke="#7591a1" stroke-width="3"/><path d="M145 36h30v9h-30z" fill="#bdd9df"/><path d="M144 56h32" stroke="#58bdc9" stroke-width="4"/><path d="M145 27v-9h30v9" fill="#213849" stroke="#7995a3"/></g><g transform="rotate(90 160 160)"><path d="M139 27L181 27 193 45 184 70 136 70 127 45Z" fill="#344f63" stroke="#7591a1" stroke-width="3"/><path d="M145 36h30v9h-30z" fill="#bdd9df"/><path d="M144 56h32" stroke="#58bdc9" stroke-width="4"/><path d="M145 27v-9h30v9" fill="#213849" stroke="#7995a3"/></g><g transform="rotate(135 160 160)"><path d="M139 27L181 27 193 45 184 70 136 70 127 45Z" fill="#344f63" stroke="#7591a1" stroke-width="3"/><path d="M145 36h30v9h-30z" fill="#bdd9df"/><path d="M144 56h32" stroke="#58bdc9" stroke-width="4"/><path d="M145 27v-9h30v9" fill="#213849" stroke="#7995a3"/></g><g transform="rotate(180 160 160)"><path d="M139 27L181 27 193 45 184 70 136 70 127 45Z" fill="#344f63" stroke="#7591a1" stroke-width="3"/><path d="M145 36h30v9h-30z" fill="#bdd9df"/><path d="M144 56h32" stroke="#58bdc9" stroke-width="4"/><path d="M145 27v-9h30v9" fill="#213849" stroke="#7995a3"/></g><g transform="rotate(225 160 160)"><path d="M139 27L181 27 193 45 184 70 136 70 127 45Z" fill="#344f63" stroke="#7591a1" stroke-width="3"/><path d="M145 36h30v9h-30z" fill="#bdd9df"/><path d="M144 56h32" stroke="#58bdc9" stroke-width="4"/><path d="M145 27v-9h30v9" fill="#213849" stroke="#7995a3"/></g><g transform="rotate(270 160 160)"><path d="M139 27L181 27 193 45 184 70 136 70 127 45Z" fill="#344f63" stroke="#7591a1" stroke-width="3"/><path d="M145 36h30v9h-30z" fill="#bdd9df"/><path d="M144 56h32" stroke="#58bdc9" stroke-width="4"/><path d="M145 27v-9h30v9" fill="#213849" stroke="#7995a3"/></g><g transform="rotate(315 160 160)"><path d="M139 27L181 27 193 45 184 70 136 70 127 45Z" fill="#344f63" stroke="#7591a1" stroke-width="3"/><path d="M145 36h30v9h-30z" fill="#bdd9df"/><path d="M144 56h32" stroke="#58bdc9" stroke-width="4"/><path d="M145 27v-9h30v9" fill="#213849" stroke="#7995a3"/></g><path d="M119 117l18-12m46 0 18 12m0 86-18 12m-46 0-18-12" stroke="#74dce8" stroke-width="5" fill="none"/><circle cx="160" cy="160" r="60" stroke="#5493a5" stroke-width="2" stroke-dasharray="8 18" fill="none"/></svg>