<svg xmlns="http://www.w3.org/2000/svg" width="128" height="128" viewBox="0 0 128 128"><defs><linearGradient id="metal" x2=".8" y2="1"><stop stop-color="#59768b"/><stop offset=".5" stop-color="#2a4357"/><stop offset="1" stop-color="#122838"/></linearGradient><linearGradient id="rock" x2=".9" y2="1"><stop stop-color="#b49a80"/><stop offset=".45" stop-color="#6b6e77"/><stop offset="1" stop-color="#30384b"/></linearGradient></defs><polygon points="120,64 100.00408882659197,94.21101765526734 73.37700159401425,117.17961866265924 41.500000000000014,102.97114317029974 15.135983719132767,81.78504745293478 8.558135373631401,43.82081154378555 38.99999999999998,20.698729810778076 73.897946127015,7.865958078304139 100.77013326971093,33.1461947350461" fill="url(#rock)" stroke="#a79580" stroke-width="2"/><path d="M26 42L62 20 84 46 66 69 35 74Z" fill="#c1b09a" opacity=".3"/><path d="M66 69L100 58 106 85 78 110 51 99Z" fill="#1d293b" opacity=".6"/><path d="M62 20L66 69 35 74M66 69L78 110M66 69L100 58" fill="none" stroke="#4d4b52" stroke-width="4"/><ellipse cx="42" cy="49" rx="10" ry="7" fill="#394251"/><ellipse cx="90" cy="84" rx="7" ry="5" fill="#283748"/></svg>