<svg xmlns="http://www.w3.org/2000/svg" width="128" height="128" viewBox="0 0 128 128"><polygon points="104.2,64.0 99.5,93.8 73.0,115.1 37.0,110.8 15.4,81.7 20.7,48.2 44.0,29.4 70.3,28.2 92.3,40.3" fill="#694536" stroke="#ed9d64" stroke-width="3"/><path d="M30 45 L61 24 87 44 73 73 104 92 60 105 31 81Z" fill="#87563c"/><path d="M31 45L73 73 60 105M61 24L73 73 104 92" fill="none" stroke="#ffb86c" stroke-width="4"/><path d="M42 53l13 -8 9 10-7 13-13-3zM80 83l10-5 4 9-10 5z" fill="#303644" opacity=".7"/></svg>